<?xml version="1.0" encoding="UTF-8"?>
<svg version="1.1" viewBox="0 0 1360 1592" width="340" height="398" xmlns="http://www.w3.org/2000/svg">
<path transform="translate(0)" d="m0 0h1360v1592h-1360z" fill="#02203E"/>
<path transform="translate(674,207)" d="m0 0h19l34 2 36 5 29 7 20 7 21 10 18 11 14 11 5 4 7 8 7 7 11 16 5 9 7-1 1-1 1-76 1-1h90l14 1v285l-2 1h-102l-1-1-1-52-1-28-2-21-4-18-7-21-8-15-9-12-9-9-11-9-14-9-16-8-21-8-27-7-23-4-26-3-38-2-33 1-36 5-22 5-24 8-17 8-15 10-10 8-12 12-9 11-8 11-12 23-7 23-4 21-1 10v27l2 21 4 20 6 21 11 23 12 16 12 13 14 12 21 14 24 13 28 12 38 13 28 8 56 14 45 13 29 10 29 12 29 14 23 13 24 16 18 14 10 9 15 14 7 8 9 10 11 16 9 15 13 27 7 21 6 27 3 21 1 11v47l-2 21-4 25-8 31-10 28-7 16-12 22-8 12-14 19-11 12-7 8-7 7-22 18-16 11-15 9-23 12-27 11-26 8-27 6-25 4-24 3-18 1h-45l-25-2-35-5-23-5-17-5-25-10-21-11-16-11-14-12-11-11-9-11-13-20-4-3h-3l-1 87-1 1-15 1h-86l-4-1v-300l1-1h102l2 1 1 50 2 35 2 18 5 23 6 18 11 21 8 10 9 10 9 9 15 11 25 13 21 8 23 6 30 5 20 2 23 1h13l42-2 30-4 27-6 17-5 26-11 16-9 16-12 10-9 9-10 13-18 10-18 7-16 6-19 5-25 2-20v-23l-2-26-4-20-5-18-11-23-8-12-10-13-10-10-14-11-15-10-25-14-28-12-36-12-37-10-48-12-45-13-27-9-37-15-27-13-23-13-21-14-12-9-9-7-13-11-22-22-15-20-9-15-13-27-10-30-6-29-3-25-1-10v-43l3-24 5-24 6-20 10-25 13-24 14-20 9-10 7-8 17-17 10-8 18-13 13-8 18-10 19-9 24-9 24-7 26-6 23-4 30-3z" fill="#C7A64E"/>
</svg>
